<?xml version="1.0" encoding="UTF-8"?> <svg xmlns="http://www.w3.org/2000/svg" width="1517" height="808" viewBox="0 0 1517 808" fill="none"> <path fill-rule="evenodd" clip-rule="evenodd" d="M859.257 137.06C859.257 137.391 859.142 137.713 858.928 137.988C858.706 138.263 858.397 138.477 858.034 138.604C857.679 138.731 857.276 138.764 856.893 138.699C856.51 138.635 856.154 138.476 855.879 138.242C855.604 138.008 855.415 137.71 855.342 137.386C855.261 137.062 855.301 136.725 855.449 136.42C855.603 136.115 855.852 135.854 856.181 135.671C856.503 135.487 856.886 135.389 857.282 135.389C857.806 135.389 858.31 135.565 858.679 135.879C859.048 136.191 859.257 136.617 859.257 137.06Z" fill="#68B7E7"></path> <path fill-rule="evenodd" clip-rule="evenodd" d="M820.838 316.824C820.838 317.155 820.717 317.478 820.502 317.753C820.287 318.028 819.971 318.242 819.615 318.369C819.253 318.495 818.85 318.528 818.467 318.464C818.084 318.399 817.735 318.24 817.453 318.007C817.178 317.773 816.99 317.475 816.916 317.15C816.835 316.826 816.876 316.491 817.023 316.185C817.178 315.879 817.433 315.619 817.755 315.435C818.078 315.251 818.467 315.153 818.857 315.153C819.118 315.153 819.374 315.197 819.615 315.281C819.85 315.365 820.072 315.488 820.253 315.643C820.441 315.798 820.582 315.982 820.683 316.185C820.784 316.388 820.838 316.605 820.838 316.824Z" fill="#68B7E7"></path> <path fill-rule="evenodd" clip-rule="evenodd" d="M1104.59 406.113C1104.59 406.443 1104.47 406.766 1104.25 407.041C1104.03 407.316 1103.72 407.53 1103.36 407.657C1103 407.783 1102.6 407.816 1102.22 407.751C1101.83 407.687 1101.48 407.528 1101.2 407.294C1100.93 407.06 1100.74 406.763 1100.67 406.439C1100.59 406.114 1100.63 405.778 1100.77 405.473C1100.93 405.168 1101.18 404.907 1101.51 404.723C1101.83 404.539 1102.21 404.441 1102.61 404.441C1102.86 404.441 1103.12 404.485 1103.37 404.569C1103.6 404.653 1103.82 404.776 1104 404.931C1104.19 405.086 1104.33 405.27 1104.43 405.474C1104.53 405.676 1104.59 405.894 1104.59 406.113Z" fill="#68B7E7"></path> <path fill-rule="evenodd" clip-rule="evenodd" d="M1160.61 610.918C1160.61 611.248 1160.5 611.572 1160.27 611.847C1160.06 612.121 1159.75 612.336 1159.39 612.462C1159.03 612.589 1158.63 612.622 1158.25 612.558C1157.86 612.493 1157.51 612.334 1157.23 612.1C1156.96 611.866 1156.76 611.568 1156.69 611.244C1156.61 610.92 1156.65 610.584 1156.8 610.279C1156.95 609.973 1157.21 609.712 1157.53 609.528C1157.86 609.345 1158.24 609.247 1158.63 609.247C1159.16 609.247 1159.66 609.423 1160.03 609.736C1160.4 610.05 1160.61 610.475 1160.61 610.918Z" fill="#68B7E7"></path> <path fill-rule="evenodd" clip-rule="evenodd" d="M979.948 337.689C979.948 338.019 979.834 338.342 979.612 338.617C979.397 338.892 979.088 339.106 978.725 339.233C978.363 339.359 977.967 339.392 977.584 339.327C977.194 339.263 976.845 339.104 976.57 338.87C976.288 338.637 976.1 338.339 976.026 338.015C975.952 337.691 975.986 337.354 976.14 337.049C976.288 336.744 976.543 336.483 976.865 336.299C977.194 336.116 977.577 336.018 977.967 336.018C978.229 336.018 978.484 336.061 978.725 336.145C978.967 336.229 979.182 336.352 979.37 336.507C979.551 336.662 979.699 336.846 979.793 337.049C979.894 337.252 979.948 337.469 979.948 337.689Z" fill="#406FBB"></path> <path fill-rule="evenodd" clip-rule="evenodd" d="M886.341 299.593C886.341 299.924 886.221 300.247 886.006 300.522C885.791 300.796 885.475 301.011 885.119 301.137C884.757 301.264 884.354 301.297 883.971 301.233C883.588 301.168 883.232 301.009 882.957 300.776C882.682 300.542 882.494 300.244 882.42 299.92C882.339 299.596 882.379 299.26 882.527 298.954C882.682 298.649 882.93 298.388 883.259 298.204C883.581 298.021 883.964 297.923 884.36 297.923C884.884 297.923 885.388 298.099 885.757 298.412C886.127 298.725 886.341 299.15 886.341 299.593Z" fill="#406FBB"></path> <path fill-rule="evenodd" clip-rule="evenodd" d="M770.072 223.243C770.072 223.573 769.957 223.897 769.736 224.171C769.521 224.447 769.212 224.661 768.849 224.787C768.487 224.914 768.091 224.947 767.708 224.883C767.318 224.818 766.969 224.659 766.694 224.425C766.412 224.192 766.224 223.894 766.15 223.569C766.069 223.245 766.11 222.91 766.264 222.604C766.412 222.298 766.667 222.038 766.989 221.854C767.318 221.67 767.701 221.572 768.091 221.572C768.353 221.572 768.608 221.615 768.849 221.699C769.091 221.784 769.306 221.906 769.487 222.061C769.675 222.217 769.823 222.401 769.917 222.604C770.018 222.806 770.072 223.024 770.072 223.243Z" fill="#365CBB"></path> <path d="M648.366 99.9309C649.46 99.9309 650.346 99.1827 650.346 98.2599C650.346 97.3371 649.46 96.5889 648.366 96.5889C647.273 96.5889 646.387 97.3371 646.387 98.2599C646.387 99.1827 647.273 99.9309 648.366 99.9309Z" fill="#365CBB"></path> <path fill-rule="evenodd" clip-rule="evenodd" d="M884.36 41.1046C884.36 41.5477 884.152 41.9728 883.783 42.2863C883.407 42.5997 882.903 42.7758 882.379 42.7759C882.118 42.7759 881.862 42.7326 881.621 42.6486C881.386 42.5647 881.164 42.4415 880.983 42.2863C880.795 42.1311 880.654 41.9468 880.553 41.7441C880.452 41.5413 880.398 41.324 880.398 41.1046C880.398 40.8851 880.452 40.6678 880.553 40.4651C880.654 40.2623 880.795 40.0781 880.983 39.9229C881.164 39.7677 881.386 39.6447 881.621 39.5607C881.862 39.4767 882.118 39.4335 882.379 39.4336C882.641 39.4336 882.896 39.4768 883.138 39.5608C883.38 39.6447 883.595 39.7678 883.783 39.923C883.964 40.0781 884.112 40.2623 884.206 40.4651C884.307 40.6678 884.36 40.8851 884.36 41.1046Z" fill="#365CBB"></path> <path fill-rule="evenodd" clip-rule="evenodd" d="M1010.19 336.022C1010.19 336.352 1010.07 336.675 1009.86 336.95C1009.64 337.225 1009.33 337.439 1008.96 337.565C1008.61 337.692 1008.21 337.725 1007.82 337.66C1007.44 337.596 1007.08 337.437 1006.81 337.203C1006.53 336.969 1006.35 336.671 1006.27 336.347C1006.19 336.023 1006.23 335.687 1006.38 335.382C1006.53 335.077 1006.78 334.816 1007.11 334.632C1007.43 334.449 1007.82 334.351 1008.21 334.351C1008.47 334.351 1008.73 334.394 1008.96 334.477C1009.21 334.561 1009.43 334.685 1009.61 334.84C1009.8 334.996 1009.94 335.179 1010.04 335.382C1010.14 335.585 1010.19 335.802 1010.19 336.022Z" fill="#365CBB"></path> <path d="M1024.59 28.8463C1025.68 28.8463 1026.57 28.098 1026.57 27.1751C1026.57 26.2521 1025.68 25.5039 1024.59 25.5039C1023.5 25.5039 1022.61 26.2521 1022.61 27.1751C1022.61 28.098 1023.5 28.8463 1024.59 28.8463Z" fill="#365CBB"></path> <path fill-rule="evenodd" clip-rule="evenodd" d="M628.089 724.731C628.089 725.066 627.973 725.388 627.755 725.664C627.538 725.939 627.229 726.153 626.867 726.274C626.505 726.402 626.106 726.435 625.722 726.375C625.339 726.308 624.986 726.147 624.709 725.912C624.432 725.684 624.244 725.382 624.167 725.06C624.091 724.737 624.129 724.402 624.28 724.093C624.43 723.791 624.684 723.529 625.009 723.341C625.335 723.16 625.718 723.06 626.109 723.06C626.369 723.06 626.627 723.107 626.867 723.187C627.107 723.274 627.325 723.395 627.509 723.549C627.693 723.704 627.838 723.892 627.938 724.093C628.038 724.294 628.089 724.516 628.089 724.731Z" fill="#90FFFF"></path> <path fill-rule="evenodd" clip-rule="evenodd" d="M1097.51 63.7403C1097.51 64.1835 1097.3 64.6086 1096.93 64.922C1096.56 65.2354 1096.06 65.4116 1095.53 65.4117C1095 65.4116 1094.5 65.2355 1094.13 64.922C1093.76 64.6086 1093.55 64.1836 1093.55 63.7403C1093.55 63.2971 1093.76 62.872 1094.13 62.5587C1094.5 62.2453 1095 62.0693 1095.53 62.0693C1096.06 62.0693 1096.56 62.2454 1096.93 62.5587C1097.3 62.8721 1097.51 63.2971 1097.51 63.7403Z" fill="#406FBB"></path> <path fill-rule="evenodd" clip-rule="evenodd" d="M1080.44 285.327C1080.44 285.658 1080.33 285.981 1080.11 286.256C1079.89 286.531 1079.58 286.745 1079.22 286.871C1078.86 286.998 1078.46 287.031 1078.08 286.966C1077.7 286.902 1077.34 286.743 1077.06 286.509C1076.79 286.276 1076.6 285.978 1076.52 285.653C1076.45 285.329 1076.49 284.993 1076.63 284.688C1076.78 284.382 1077.04 284.121 1077.37 283.938C1077.69 283.754 1078.07 283.656 1078.46 283.656C1078.72 283.656 1078.98 283.699 1079.22 283.783C1079.46 283.867 1079.68 283.99 1079.86 284.145C1080.05 284.301 1080.19 284.485 1080.29 284.688C1080.4 284.89 1080.44 285.108 1080.44 285.327Z" fill="#406FBB"></path> <path fill-rule="evenodd" clip-rule="evenodd" d="M574.839 205.212C574.839 205.542 574.723 205.866 574.505 206.14C574.287 206.415 573.978 206.629 573.617 206.756C573.255 206.882 572.857 206.916 572.473 206.851C572.089 206.786 571.736 206.627 571.459 206.394C571.182 206.16 570.994 205.862 570.917 205.538C570.84 205.214 570.88 204.878 571.03 204.573C571.18 204.267 571.433 204.006 571.759 203.822C572.085 203.639 572.468 203.541 572.859 203.541C573.384 203.541 573.888 203.717 574.259 204.03C574.63 204.344 574.839 204.768 574.839 205.212Z" fill="#406FBB"></path> <path fill-rule="evenodd" clip-rule="evenodd" d="M1380.05 48.7641C1380.05 49.2073 1379.84 49.6323 1379.48 49.9457C1379.11 50.259 1378.6 50.4351 1378.08 50.4351C1377.82 50.4351 1377.55 50.3919 1377.32 50.308C1377.08 50.224 1376.86 50.101 1376.68 49.9457C1376.49 49.7906 1376.35 49.6064 1376.25 49.4036C1376.14 49.2009 1376.1 48.9836 1376.1 48.7641C1376.1 48.3208 1376.31 47.8957 1376.68 47.5823C1377.04 47.2689 1377.55 47.0928 1378.08 47.0928C1378.6 47.0928 1379.11 47.2689 1379.48 47.5824C1379.84 47.8958 1380.05 48.3209 1380.05 48.7641Z" fill="#406FBB"></path> <path fill-rule="evenodd" clip-rule="evenodd" d="M679.385 292.639C679.385 292.97 679.271 293.293 679.049 293.568C678.835 293.843 678.526 294.057 678.163 294.183C677.8 294.309 677.404 294.343 677.021 294.278C676.632 294.213 676.283 294.054 676.007 293.821C675.725 293.587 675.537 293.289 675.463 292.965C675.389 292.641 675.423 292.305 675.578 291.999C675.725 291.694 675.98 291.433 676.303 291.25C676.632 291.066 677.015 290.968 677.404 290.968C677.666 290.968 677.921 291.011 678.163 291.095C678.405 291.179 678.62 291.303 678.808 291.458C678.989 291.613 679.137 291.797 679.231 292C679.331 292.203 679.385 292.42 679.385 292.639Z" fill="#406FBB"></path> <path fill-rule="evenodd" clip-rule="evenodd" d="M861.528 745.454C861.528 745.79 861.414 746.112 861.199 746.387C860.978 746.662 860.669 746.877 860.306 746.998C859.95 747.125 859.547 747.159 859.164 747.098C858.782 747.031 858.426 746.87 858.15 746.635C857.875 746.407 857.687 746.105 857.606 745.783C857.533 745.461 857.573 745.125 857.721 744.817C857.868 744.515 858.123 744.253 858.453 744.065C858.775 743.884 859.158 743.783 859.554 743.783C860.078 743.783 860.581 743.964 860.951 744.273C861.32 744.588 861.528 745.011 861.528 745.454Z" fill="#406FBB"></path> <path fill-rule="evenodd" clip-rule="evenodd" d="M1517 27.229C1517 27.6721 1516.79 28.0971 1516.42 28.4105C1516.05 28.7238 1515.54 28.8999 1515.02 28.8999C1514.76 28.9 1514.5 28.8568 1514.26 28.7728C1514.02 28.6889 1513.8 28.5658 1513.62 28.4107C1513.44 28.2555 1513.29 28.0713 1513.19 27.8685C1513.09 27.6657 1513.04 27.4484 1513.04 27.229C1513.04 27.0095 1513.09 26.7921 1513.19 26.5893C1513.29 26.3866 1513.44 26.2023 1513.62 26.047C1513.8 25.8919 1514.02 25.7687 1514.26 25.6848C1514.5 25.6008 1514.76 25.5576 1515.02 25.5576C1515.28 25.5576 1515.54 25.6009 1515.78 25.6849C1516.02 25.7689 1516.24 25.892 1516.42 26.0472C1516.6 26.2024 1516.75 26.3866 1516.85 26.5894C1516.95 26.7922 1517 27.0095 1517 27.229Z" fill="#406FBB"></path> <path fill-rule="evenodd" clip-rule="evenodd" d="M705.321 86.504C705.321 86.8349 705.207 87.1577 704.985 87.4328C704.77 87.7073 704.462 87.9214 704.099 88.0482C703.736 88.1744 703.34 88.208 702.957 88.1435C702.575 88.0791 702.219 87.9201 701.943 87.6858C701.668 87.4523 701.473 87.1543 701.399 86.8302C701.325 86.5061 701.366 86.1705 701.514 85.8652C701.661 85.5598 701.916 85.2987 702.239 85.1149C702.568 84.931 702.951 84.833 703.34 84.833C703.864 84.833 704.367 85.0088 704.744 85.3222C705.113 85.6356 705.321 86.0611 705.321 86.504Z" fill="#406FBB"></path> <path fill-rule="evenodd" clip-rule="evenodd" d="M1090.03 512.51C1090.03 512.841 1089.92 513.164 1089.7 513.439C1089.48 513.713 1089.17 513.927 1088.81 514.054C1088.45 514.18 1088.05 514.213 1087.67 514.149C1087.29 514.084 1086.93 513.925 1086.65 513.692C1086.38 513.458 1086.19 513.16 1086.11 512.836C1086.04 512.512 1086.08 512.176 1086.22 511.87C1086.37 511.565 1086.63 511.304 1086.96 511.121C1087.28 510.937 1087.66 510.839 1088.06 510.839C1088.58 510.839 1089.09 511.015 1089.45 511.329C1089.82 511.641 1090.03 512.067 1090.03 512.51Z" fill="#406FBB"></path> <path fill-rule="evenodd" clip-rule="evenodd" d="M459.972 282.085C459.972 282.415 459.855 282.739 459.638 283.013C459.42 283.288 459.111 283.502 458.749 283.629C458.387 283.755 457.99 283.788 457.606 283.724C457.222 283.659 456.868 283.5 456.592 283.266C456.315 283.033 456.126 282.735 456.05 282.411C455.973 282.086 456.013 281.751 456.163 281.446C456.312 281.14 456.566 280.879 456.892 280.695C457.218 280.512 457.6 280.414 457.992 280.414C458.517 280.414 459.021 280.59 459.391 280.903C459.763 281.217 459.972 281.641 459.972 282.085Z" fill="#406FBB"></path> <path fill-rule="evenodd" clip-rule="evenodd" d="M504.881 44.4542C504.881 44.8974 504.673 45.3224 504.302 45.6358C503.93 45.9491 503.427 46.1251 502.902 46.1251C502.376 46.1252 501.873 45.9492 501.501 45.6358C501.13 45.3224 500.922 44.8974 500.922 44.4542C500.922 44.2347 500.973 44.0174 501.072 43.8146C501.172 43.6119 501.318 43.4277 501.501 43.2725C501.685 43.1173 501.904 42.9943 502.144 42.9103C502.384 42.8264 502.642 42.7831 502.902 42.7832C503.161 42.7831 503.419 42.8264 503.659 42.9103C503.899 42.9943 504.118 43.1173 504.302 43.2726C504.486 43.4277 504.631 43.6119 504.731 43.8147C504.83 44.0174 504.881 44.2347 504.881 44.4542Z" fill="#406FBB"></path> <path fill-rule="evenodd" clip-rule="evenodd" d="M926.7 438.73C926.7 439.06 926.586 439.383 926.364 439.658C926.149 439.933 925.841 440.147 925.478 440.274C925.115 440.4 924.719 440.433 924.336 440.368C923.953 440.304 923.598 440.145 923.322 439.911C923.047 439.678 922.852 439.38 922.778 439.056C922.704 438.732 922.745 438.395 922.892 438.09C923.04 437.785 923.295 437.524 923.618 437.34C923.947 437.157 924.33 437.059 924.719 437.059C925.243 437.059 925.746 437.234 926.123 437.548C926.492 437.861 926.7 438.286 926.7 438.73Z" fill="#406FBB"></path> <path fill-rule="evenodd" clip-rule="evenodd" d="M772.052 162.301C772.052 162.632 771.938 162.955 771.716 163.23C771.502 163.504 771.193 163.719 770.83 163.845C770.467 163.972 770.071 164.005 769.682 163.94C769.299 163.876 768.95 163.717 768.668 163.483C768.392 163.249 768.204 162.951 768.13 162.627C768.05 162.303 768.09 161.967 768.245 161.662C768.392 161.357 768.647 161.096 768.97 160.912C769.299 160.728 769.682 160.63 770.071 160.63C770.595 160.631 771.099 160.806 771.468 161.12C771.844 161.433 772.052 161.858 772.052 162.301Z" fill="#406FBB"></path> <path fill-rule="evenodd" clip-rule="evenodd" d="M1234.89 560.92C1234.89 561.25 1234.77 561.574 1234.56 561.848C1234.34 562.123 1234.03 562.337 1233.67 562.464C1233.31 562.59 1232.91 562.624 1232.52 562.56C1232.14 562.494 1231.79 562.335 1231.51 562.102C1231.23 561.868 1231.05 561.57 1230.97 561.246C1230.89 560.922 1230.93 560.586 1231.08 560.281C1231.23 559.975 1231.48 559.714 1231.81 559.53C1232.13 559.347 1232.52 559.249 1232.91 559.249C1233.44 559.249 1233.94 559.425 1234.31 559.738C1234.68 560.052 1234.89 560.477 1234.89 560.92Z" fill="#406FBB"></path> <path fill-rule="evenodd" clip-rule="evenodd" d="M1120.49 169.006C1120.49 169.337 1120.37 169.66 1120.15 169.935C1119.93 170.209 1119.62 170.423 1119.26 170.55C1118.91 170.676 1118.5 170.709 1118.12 170.645C1117.74 170.58 1117.38 170.421 1117.11 170.188C1116.83 169.954 1116.64 169.656 1116.57 169.332C1116.49 169.008 1116.53 168.672 1116.68 168.366C1116.83 168.061 1117.08 167.8 1117.41 167.616C1117.73 167.433 1118.11 167.335 1118.51 167.335C1118.76 167.335 1119.03 167.378 1119.26 167.462C1119.5 167.546 1119.72 167.669 1119.91 167.824C1120.09 167.979 1120.24 168.164 1120.34 168.366C1120.44 168.569 1120.49 168.787 1120.49 169.006Z" fill="#68B7E7"></path> <path fill-rule="evenodd" clip-rule="evenodd" d="M1217.56 182.891C1217.56 183.222 1217.44 183.544 1217.23 183.82C1217 184.094 1216.7 184.308 1216.33 184.435C1215.97 184.561 1215.57 184.595 1215.19 184.53C1214.81 184.465 1214.45 184.306 1214.18 184.073C1213.9 183.839 1213.71 183.541 1213.63 183.217C1213.56 182.893 1213.6 182.557 1213.75 182.251C1213.9 181.946 1214.15 181.685 1214.48 181.502C1214.8 181.318 1215.19 181.22 1215.57 181.22C1215.84 181.22 1216.09 181.263 1216.33 181.347C1216.58 181.431 1216.79 181.554 1216.98 181.71C1217.16 181.865 1217.31 182.049 1217.41 182.252C1217.51 182.455 1217.56 182.672 1217.56 182.891Z" fill="#406FBB"></path> <path fill-rule="evenodd" clip-rule="evenodd" d="M989.63 616.059C989.63 616.389 989.516 616.712 989.294 616.987C989.079 617.262 988.77 617.476 988.408 617.602C988.045 617.729 987.649 617.762 987.266 617.698C986.883 617.633 986.527 617.474 986.252 617.24C985.977 617.006 985.789 616.709 985.708 616.385C985.634 616.061 985.674 615.724 985.822 615.419C985.97 615.114 986.225 614.853 986.554 614.67C986.876 614.486 987.259 614.388 987.649 614.388C987.911 614.388 988.166 614.431 988.408 614.515C988.649 614.599 988.864 614.722 989.052 614.877C989.233 615.032 989.381 615.216 989.482 615.419C989.576 615.622 989.63 615.839 989.63 616.059Z" fill="#406FBB"></path> <path fill-rule="evenodd" clip-rule="evenodd" d="M618.819 232.875C618.819 233.205 618.703 233.529 618.485 233.803C618.268 234.078 617.959 234.292 617.597 234.419C617.235 234.545 616.837 234.578 616.453 234.514C616.069 234.45 615.716 234.29 615.439 234.057C615.163 233.823 614.974 233.525 614.897 233.201C614.821 232.876 614.86 232.541 615.01 232.236C615.16 231.93 615.414 231.669 615.74 231.485C616.065 231.302 616.448 231.204 616.84 231.204C617.365 231.204 617.868 231.38 618.239 231.693C618.61 232.007 618.819 232.432 618.819 232.875Z" fill="#90FFFF"></path> <path d="M801.692 254.715C802.78 254.715 803.666 253.967 803.666 253.044C803.666 252.121 802.78 251.373 801.692 251.373C800.597 251.373 799.711 252.121 799.711 253.044C799.711 253.967 800.597 254.715 801.692 254.715Z" fill="#90FFFF"></path> <path fill-rule="evenodd" clip-rule="evenodd" d="M783.825 42.7768C783.819 43.22 783.61 43.645 783.241 43.9584C782.872 44.2718 782.368 44.4478 781.844 44.4478C781.314 44.4478 780.81 44.2717 780.441 43.9584C780.071 43.645 779.863 43.22 779.863 42.7768C779.863 42.5573 779.91 42.34 780.011 42.1372C780.112 41.9345 780.259 41.7502 780.441 41.595C780.629 41.4398 780.844 41.3167 781.085 41.2327C781.327 41.1487 781.582 41.1055 781.844 41.1055C782.368 41.1055 782.872 41.2816 783.241 41.595C783.61 41.9084 783.825 42.3335 783.825 42.7768Z" fill="#90FFFF"></path> <path fill-rule="evenodd" clip-rule="evenodd" d="M449.764 168.955C449.764 169.285 449.648 169.609 449.43 169.883C449.212 170.158 448.904 170.373 448.542 170.499C448.18 170.625 447.782 170.658 447.398 170.593C447.014 170.529 446.661 170.37 446.385 170.136C446.107 169.903 445.919 169.605 445.843 169.281C445.766 168.957 445.806 168.62 445.956 168.315C446.105 168.01 446.359 167.749 446.685 167.565C447.01 167.382 447.393 167.284 447.784 167.284C448.044 167.284 448.302 167.327 448.542 167.411C448.782 167.495 449 167.618 449.184 167.773C449.368 167.928 449.514 168.113 449.613 168.316C449.713 168.518 449.764 168.736 449.764 168.955Z" fill="#90FFFF"></path> <path fill-rule="evenodd" clip-rule="evenodd" d="M922.368 495.734C922.368 496.064 922.254 496.387 922.032 496.662C921.817 496.937 921.508 497.151 921.146 497.278C920.783 497.404 920.387 497.437 920.004 497.372C919.621 497.308 919.265 497.149 918.99 496.915C918.715 496.682 918.527 496.384 918.446 496.06C918.372 495.735 918.413 495.399 918.56 495.094C918.708 494.789 918.963 494.528 919.292 494.344C919.615 494.16 919.997 494.062 920.387 494.062C920.917 494.062 921.421 494.238 921.791 494.552C922.16 494.865 922.368 495.291 922.368 495.734Z" fill="#B7FFFF"></path> <path fill-rule="evenodd" clip-rule="evenodd" d="M840.448 103.47C840.448 103.8 840.334 104.123 840.112 104.398C839.897 104.673 839.588 104.887 839.225 105.013C838.863 105.14 838.467 105.173 838.084 105.108C837.694 105.044 837.345 104.885 837.07 104.651C836.788 104.417 836.6 104.12 836.526 103.796C836.452 103.472 836.486 103.135 836.64 102.83C836.788 102.525 837.043 102.264 837.365 102.08C837.694 101.897 838.077 101.799 838.467 101.798C838.728 101.798 838.984 101.841 839.225 101.925C839.467 102.009 839.682 102.133 839.87 102.288C840.051 102.443 840.199 102.627 840.3 102.83C840.394 103.033 840.448 103.25 840.448 103.47Z" fill="#90FFFF"></path> <path fill-rule="evenodd" clip-rule="evenodd" d="M1215.58 332.052C1215.58 332.382 1215.47 332.706 1215.25 332.98C1215.03 333.255 1214.72 333.469 1214.36 333.595C1214 333.722 1213.6 333.755 1213.22 333.691C1212.83 333.626 1212.48 333.467 1212.2 333.233C1211.93 333 1211.73 332.702 1211.66 332.377C1211.59 332.053 1211.63 331.718 1211.78 331.412C1211.92 331.107 1212.18 330.846 1212.5 330.662C1212.83 330.479 1213.21 330.381 1213.6 330.381C1214.13 330.381 1214.63 330.557 1215.01 330.87C1215.37 331.184 1215.58 331.608 1215.58 332.052Z" fill="#90FFFF"></path> <path fill-rule="evenodd" clip-rule="evenodd" d="M813.782 501.223C813.782 501.553 813.668 501.876 813.453 502.151C813.231 502.426 812.922 502.64 812.56 502.766C812.197 502.893 811.801 502.926 811.418 502.862C811.036 502.797 810.68 502.638 810.404 502.404C810.129 502.17 809.941 501.873 809.86 501.549C809.786 501.225 809.827 500.889 809.974 500.583C810.122 500.278 810.377 500.017 810.706 499.833C811.029 499.65 811.412 499.552 811.801 499.552C812.332 499.552 812.835 499.728 813.204 500.041C813.574 500.354 813.782 500.779 813.782 501.223Z" fill="#90FFFF"></path> <path fill-rule="evenodd" clip-rule="evenodd" d="M540.519 515.8C540.519 516.13 540.402 516.454 540.185 516.728C539.967 517.003 539.658 517.217 539.296 517.343C538.934 517.47 538.536 517.503 538.152 517.439C537.768 517.374 537.415 517.215 537.139 516.981C536.861 516.748 536.673 516.45 536.597 516.126C536.52 515.802 536.559 515.466 536.709 515.16C536.859 514.855 537.113 514.594 537.438 514.41C537.764 514.227 538.147 514.129 538.538 514.129C538.798 514.128 539.056 514.172 539.296 514.256C539.536 514.34 539.754 514.463 539.938 514.618C540.122 514.773 540.268 514.958 540.368 515.16C540.467 515.363 540.519 515.58 540.519 515.8Z" fill="#90FFFF"></path> <path fill-rule="evenodd" clip-rule="evenodd" d="M1213.6 17.4796C1213.6 17.6991 1213.54 17.9164 1213.45 18.1191C1213.35 18.3219 1213.2 18.5061 1213.02 18.6614C1212.83 18.8166 1212.62 18.9397 1212.38 19.0237C1212.13 19.1077 1211.88 19.1509 1211.62 19.1509C1211.36 19.1509 1211.1 19.1077 1210.86 19.0237C1210.62 18.9398 1210.4 18.8166 1210.22 18.6615C1210.03 18.5063 1209.89 18.322 1209.79 18.1192C1209.69 17.9164 1209.64 17.6991 1209.64 17.4796C1209.64 17.2601 1209.69 17.0428 1209.79 16.8401C1209.89 16.6373 1210.03 16.4531 1210.22 16.298C1210.4 16.1427 1210.62 16.0197 1210.86 15.9357C1211.1 15.8517 1211.36 15.8086 1211.62 15.8086C1212.14 15.8086 1212.65 15.9847 1213.02 16.298C1213.39 16.6114 1213.6 17.0364 1213.6 17.4796Z" fill="#90FFFF"></path> <path fill-rule="evenodd" clip-rule="evenodd" d="M1079.35 137.003C1079.35 137.334 1079.23 137.657 1079.01 137.932C1078.8 138.206 1078.49 138.42 1078.12 138.547C1077.76 138.673 1077.36 138.707 1076.98 138.643C1076.59 138.578 1076.24 138.419 1075.97 138.185C1075.69 137.951 1075.5 137.653 1075.42 137.329C1075.35 137.005 1075.38 136.669 1075.54 136.364C1075.69 136.058 1075.94 135.797 1076.26 135.614C1076.59 135.43 1076.98 135.332 1077.36 135.332C1077.89 135.332 1078.39 135.509 1078.77 135.822C1079.14 136.135 1079.35 136.56 1079.35 137.003Z" fill="#90FFFF"></path> <path fill-rule="evenodd" clip-rule="evenodd" d="M1012.17 232.875C1012.17 233.205 1012.05 233.528 1011.83 233.803C1011.62 234.078 1011.31 234.292 1010.94 234.419C1010.58 234.545 1010.19 234.578 1009.8 234.514C1009.42 234.45 1009.06 234.29 1008.79 234.057C1008.51 233.823 1008.32 233.525 1008.24 233.201C1008.17 232.877 1008.2 232.541 1008.36 232.236C1008.51 231.93 1008.76 231.669 1009.08 231.485C1009.41 231.302 1009.8 231.204 1010.19 231.204C1010.45 231.204 1010.7 231.247 1010.94 231.331C1011.19 231.415 1011.4 231.538 1011.59 231.693C1011.77 231.848 1011.92 232.032 1012.02 232.236C1012.11 232.438 1012.17 232.655 1012.17 232.875Z" fill="#90FFFF"></path> <path fill-rule="evenodd" clip-rule="evenodd" d="M807.61 233.407C807.61 233.738 807.496 234.061 807.274 234.335C807.06 234.611 806.751 234.825 806.388 234.951C806.025 235.078 805.629 235.111 805.246 235.046C804.864 234.982 804.508 234.823 804.232 234.589C803.957 234.355 803.762 234.058 803.688 233.734C803.615 233.409 803.655 233.073 803.803 232.768C803.95 232.462 804.206 232.201 804.528 232.018C804.857 231.834 805.24 231.736 805.629 231.736C805.891 231.736 806.146 231.779 806.388 231.863C806.63 231.947 806.845 232.071 807.033 232.226C807.214 232.381 807.362 232.564 807.463 232.768C807.557 232.97 807.61 233.188 807.61 233.407Z" fill="#90FFFF"></path> <path fill-rule="evenodd" clip-rule="evenodd" d="M871.28 524.902C871.28 525.232 871.165 525.555 870.944 525.83C870.729 526.105 870.42 526.319 870.057 526.446C869.695 526.572 869.299 526.605 868.916 526.54C868.526 526.476 868.177 526.317 867.902 526.083C867.62 525.85 867.432 525.552 867.358 525.228C867.284 524.904 867.318 524.567 867.472 524.262C867.62 523.957 867.875 523.696 868.197 523.512C868.526 523.328 868.909 523.23 869.299 523.23C869.822 523.23 870.326 523.406 870.702 523.72C871.071 524.033 871.28 524.459 871.28 524.902Z" fill="#90FFFF"></path> <path fill-rule="evenodd" clip-rule="evenodd" d="M815.791 380.605C815.791 380.935 815.67 381.258 815.455 381.533C815.24 381.808 814.931 382.023 814.569 382.149C814.206 382.276 813.81 382.309 813.42 382.244C813.037 382.18 812.688 382.021 812.406 381.787C812.131 381.553 811.943 381.256 811.869 380.931C811.788 380.607 811.829 380.271 811.976 379.966C812.131 379.66 812.386 379.399 812.708 379.215C813.031 379.032 813.413 378.934 813.81 378.934C814.333 378.934 814.837 379.11 815.206 379.424C815.583 379.737 815.791 380.162 815.791 380.605Z" fill="#68B7E7"></path> <path fill-rule="evenodd" clip-rule="evenodd" d="M691.146 312.192C691.146 312.522 691.025 312.845 690.81 313.12C690.595 313.395 690.286 313.609 689.924 313.736C689.561 313.863 689.165 313.895 688.775 313.831C688.393 313.767 688.043 313.608 687.761 313.373C687.486 313.14 687.298 312.842 687.224 312.518C687.144 312.194 687.184 311.857 687.338 311.552C687.486 311.247 687.741 310.986 688.064 310.802C688.393 310.618 688.775 310.521 689.165 310.521C689.689 310.521 690.192 310.697 690.562 311.01C690.938 311.323 691.146 311.749 691.146 312.192Z" fill="#406FBB"></path> <path fill-rule="evenodd" clip-rule="evenodd" d="M597.538 274.096C597.538 274.426 597.422 274.749 597.204 275.024C596.987 275.299 596.677 275.513 596.315 275.639C595.954 275.765 595.556 275.799 595.172 275.734C594.788 275.669 594.435 275.51 594.158 275.277C593.881 275.043 593.692 274.745 593.616 274.421C593.54 274.097 593.579 273.761 593.729 273.455C593.879 273.15 594.133 272.89 594.458 272.706C594.783 272.522 595.166 272.424 595.558 272.424C595.818 272.424 596.075 272.467 596.316 272.551C596.556 272.635 596.775 272.759 596.959 272.914C597.142 273.069 597.288 273.253 597.388 273.456C597.487 273.659 597.538 273.876 597.538 274.096Z" fill="#406FBB"></path> <path fill-rule="evenodd" clip-rule="evenodd" d="M481.272 197.74C481.272 198.071 481.156 198.394 480.939 198.669C480.722 198.944 480.412 199.158 480.05 199.285C479.689 199.411 479.291 199.444 478.907 199.38C478.522 199.315 478.17 199.156 477.892 198.923C477.616 198.689 477.427 198.391 477.351 198.067C477.274 197.743 477.314 197.407 477.463 197.101C477.613 196.796 477.867 196.535 478.192 196.351C478.518 196.167 478.9 196.069 479.292 196.069C479.817 196.069 480.321 196.245 480.692 196.559C481.064 196.872 481.272 197.297 481.272 197.74Z" fill="#365CBB"></path> <path fill-rule="evenodd" clip-rule="evenodd" d="M361.549 72.757C361.549 72.9764 361.498 73.1938 361.399 73.3965C361.299 73.5992 361.154 73.7831 360.97 73.9388C360.786 74.0938 360.567 74.2166 360.327 74.3012C360.087 74.385 359.829 74.428 359.57 74.428C359.31 74.428 359.052 74.385 358.812 74.3012C358.572 74.2166 358.353 74.0938 358.169 73.9388C357.986 73.7831 357.84 73.5992 357.74 73.3965C357.641 73.1938 357.59 72.9764 357.59 72.757C357.59 72.3134 357.799 71.8886 358.17 71.5752C358.541 71.2618 359.044 71.0859 359.57 71.0859C360.095 71.0859 360.598 71.2618 360.97 71.5752C361.34 71.8886 361.549 72.3134 361.549 72.757Z" fill="#365CBB"></path> <path fill-rule="evenodd" clip-rule="evenodd" d="M595.561 15.6088C595.561 16.052 595.352 16.477 594.981 16.7904C594.61 17.1037 594.106 17.2798 593.581 17.2798C593.056 17.2798 592.553 17.1038 592.182 16.7904C591.81 16.4771 591.602 16.0521 591.602 15.6088C591.602 15.1656 591.81 14.7405 592.182 14.4271C592.552 14.1137 593.056 13.9376 593.581 13.9375C594.106 13.9376 594.61 14.1137 594.981 14.4271C595.353 14.7405 595.561 15.1656 595.561 15.6088Z" fill="#365CBB"></path> <path fill-rule="evenodd" clip-rule="evenodd" d="M394.882 449.658C394.882 449.989 394.766 450.312 394.548 450.587C394.331 450.862 394.022 451.076 393.66 451.203C393.298 451.329 392.899 451.362 392.515 451.298C392.131 451.233 391.779 451.074 391.502 450.84C391.225 450.607 391.036 450.309 390.96 449.985C390.884 449.66 390.922 449.324 391.072 449.019C391.222 448.713 391.476 448.452 391.802 448.269C392.127 448.085 392.51 447.987 392.902 447.987C393.427 447.987 393.93 448.163 394.302 448.477C394.673 448.79 394.881 449.215 394.882 449.658Z" fill="#365CBB"></path> <path fill-rule="evenodd" clip-rule="evenodd" d="M721.392 310.52C721.392 310.85 721.271 311.173 721.056 311.448C720.842 311.723 720.533 311.937 720.17 312.064C719.807 312.19 719.404 312.224 719.022 312.158C718.639 312.094 718.29 311.935 718.008 311.701C717.732 311.468 717.544 311.17 717.47 310.846C717.39 310.522 717.43 310.185 717.578 309.88C717.732 309.575 717.988 309.314 718.31 309.13C718.632 308.947 719.015 308.849 719.411 308.849C719.673 308.849 719.928 308.892 720.17 308.975C720.405 309.06 720.627 309.183 720.808 309.338C720.996 309.494 721.137 309.677 721.238 309.88C721.339 310.083 721.392 310.3 721.392 310.52Z" fill="#365CBB"></path> <path fill-rule="evenodd" clip-rule="evenodd" d="M737.775 1.67135C737.775 1.89079 737.721 2.10807 737.62 2.31081C737.526 2.51354 737.378 2.69774 737.197 2.8529C737.009 3.00808 736.794 3.13116 736.552 3.21514C736.311 3.29911 736.055 3.34233 735.793 3.34233C735.27 3.34235 734.766 3.16632 734.397 2.85296C734.021 2.53959 733.812 2.11456 733.812 1.67135C733.812 1.2281 734.021 0.803021 734.397 0.489598C734.766 0.176174 735.27 6.65958e-05 735.793 0C736.317 7.61231e-05 736.821 0.1762 737.197 0.489632C737.566 0.803061 737.775 1.22814 737.775 1.67135Z" fill="#365CBB"></path> <path fill-rule="evenodd" clip-rule="evenodd" d="M286.038 179.714C286.038 180.044 285.922 180.368 285.705 180.642C285.487 180.917 285.177 181.131 284.816 181.258C284.454 181.384 284.056 181.417 283.672 181.353C283.288 181.288 282.935 181.129 282.658 180.896C282.381 180.662 282.192 180.364 282.116 180.04C282.04 179.716 282.079 179.38 282.229 179.074C282.378 178.769 282.632 178.508 282.958 178.324C283.284 178.141 283.666 178.043 284.058 178.043C284.583 178.043 285.087 178.219 285.458 178.532C285.829 178.846 286.038 179.27 286.038 179.714Z" fill="#406FBB"></path> <path fill-rule="evenodd" clip-rule="evenodd" d="M390.588 267.141C390.588 267.472 390.472 267.794 390.254 268.069C390.037 268.344 389.728 268.558 389.366 268.685C389.005 268.811 388.606 268.844 388.222 268.78C387.838 268.715 387.486 268.556 387.209 268.323C386.932 268.089 386.744 267.791 386.667 267.467C386.59 267.143 386.63 266.807 386.78 266.501C386.93 266.196 387.183 265.935 387.508 265.752C387.834 265.568 388.217 265.47 388.608 265.47C389.134 265.47 389.637 265.646 390.008 265.96C390.379 266.273 390.588 266.698 390.588 267.141Z" fill="#406FBB"></path> <path fill-rule="evenodd" clip-rule="evenodd" d="M416.518 61.0073C416.518 61.4505 416.309 61.8755 415.938 62.1888C415.567 62.5022 415.063 62.6783 414.538 62.6783C414.013 62.6783 413.509 62.5023 413.138 62.1889C412.767 61.8756 412.559 61.4505 412.559 61.0073C412.559 60.564 412.767 60.1389 413.138 59.8255C413.509 59.512 414.013 59.3359 414.538 59.3359C414.798 59.3359 415.056 59.3792 415.296 59.4632C415.536 59.5472 415.754 59.6703 415.938 59.8255C416.122 59.9807 416.268 60.1649 416.368 60.3677C416.467 60.5705 416.518 60.7879 416.518 61.0073Z" fill="#406FBB"></path> <path fill-rule="evenodd" clip-rule="evenodd" d="M405.62 501.078C405.62 501.409 405.504 501.732 405.286 502.007C405.069 502.282 404.759 502.496 404.398 502.622C404.036 502.749 403.638 502.782 403.254 502.717C402.87 502.653 402.517 502.494 402.24 502.26C401.963 502.027 401.775 501.729 401.698 501.404C401.622 501.08 401.661 500.744 401.811 500.439C401.961 500.133 402.214 499.872 402.54 499.689C402.866 499.505 403.248 499.407 403.64 499.407C404.165 499.407 404.669 499.583 405.04 499.896C405.411 500.21 405.62 500.635 405.62 501.078Z" fill="#406FBB"></path> <path fill-rule="evenodd" clip-rule="evenodd" d="M171.17 256.587C171.171 256.918 171.055 257.241 170.837 257.516C170.62 257.791 170.311 258.005 169.949 258.132C169.587 258.258 169.189 258.291 168.804 258.227C168.42 258.162 168.068 258.003 167.791 257.77C167.514 257.536 167.326 257.238 167.249 256.914C167.173 256.59 167.212 256.254 167.361 255.948C167.511 255.643 167.765 255.382 168.091 255.198C168.416 255.015 168.799 254.917 169.191 254.917C169.45 254.917 169.708 254.96 169.948 255.044C170.188 255.128 170.407 255.251 170.591 255.406C170.775 255.561 170.92 255.745 171.02 255.948C171.119 256.151 171.17 256.368 171.17 256.587Z" fill="#406FBB"></path> <path fill-rule="evenodd" clip-rule="evenodd" d="M216.081 18.9473C216.081 19.3906 215.872 19.8157 215.501 20.1291C215.13 20.4425 214.627 20.6186 214.101 20.6187C213.576 20.6187 213.073 20.4426 212.701 20.1292C212.33 19.8157 212.121 19.3906 212.121 18.9473C212.121 18.7279 212.172 18.5106 212.272 18.3078C212.372 18.105 212.517 17.9208 212.701 17.7657C212.885 17.6105 213.104 17.4874 213.343 17.4035C213.584 17.3195 213.842 17.2763 214.101 17.2764C214.627 17.2764 215.13 17.4524 215.501 17.7658C215.872 18.0791 216.081 18.5041 216.081 18.9473Z" fill="#406FBB"></path> <path fill-rule="evenodd" clip-rule="evenodd" d="M483.253 136.797C483.253 137.128 483.137 137.452 482.919 137.726C482.702 138.001 482.393 138.215 482.031 138.342C481.669 138.468 481.271 138.501 480.887 138.437C480.503 138.372 480.15 138.213 479.873 137.98C479.596 137.746 479.408 137.448 479.331 137.123C479.254 136.799 479.294 136.464 479.444 136.158C479.594 135.853 479.847 135.592 480.173 135.408C480.499 135.224 480.882 135.126 481.273 135.127C481.798 135.127 482.302 135.303 482.673 135.616C483.045 135.93 483.253 136.354 483.253 136.797Z" fill="#406FBB"></path> <path fill-rule="evenodd" clip-rule="evenodd" d="M330.019 207.365C330.019 207.696 329.902 208.019 329.685 208.293C329.467 208.569 329.158 208.783 328.796 208.91C328.434 209.036 328.036 209.069 327.652 209.004C327.268 208.94 326.915 208.781 326.639 208.547C326.361 208.314 326.173 208.016 326.097 207.692C326.02 207.367 326.059 207.031 326.209 206.726C326.359 206.42 326.613 206.159 326.938 205.976C327.264 205.792 327.647 205.694 328.039 205.694C328.563 205.694 329.067 205.87 329.438 206.184C329.81 206.497 330.019 206.922 330.019 207.365Z" fill="#90FFFF"></path> <path fill-rule="evenodd" clip-rule="evenodd" d="M495.023 17.2823C495.023 17.7255 494.814 18.1506 494.442 18.4639C494.071 18.7773 493.567 18.9533 493.042 18.9533C492.517 18.9533 492.013 18.7772 491.643 18.4639C491.271 18.1505 491.062 17.7255 491.062 17.2823C491.062 16.8392 491.271 16.4141 491.643 16.1008C492.013 15.7874 492.517 15.6113 493.042 15.6113C493.567 15.6113 494.071 15.7874 494.442 16.1007C494.814 16.4141 495.023 16.8391 495.023 17.2823Z" fill="#90FFFF"></path> <path fill-rule="evenodd" clip-rule="evenodd" d="M633.569 470.237C633.569 470.568 633.454 470.891 633.236 471.166C633.019 471.441 632.709 471.655 632.347 471.782C631.986 471.908 631.588 471.941 631.203 471.877C630.819 471.812 630.467 471.653 630.189 471.419C629.913 471.186 629.724 470.888 629.647 470.564C629.571 470.239 629.611 469.903 629.76 469.598C629.91 469.293 630.164 469.031 630.49 468.848C630.815 468.664 631.197 468.566 631.59 468.566C631.849 468.566 632.107 468.609 632.347 468.693C632.587 468.777 632.806 468.901 632.99 469.056C633.173 469.211 633.319 469.395 633.419 469.598C633.518 469.801 633.569 470.018 633.569 470.237Z" fill="#B7FFFF"></path> <path fill-rule="evenodd" clip-rule="evenodd" d="M524.979 475.721C524.979 476.051 524.863 476.375 524.646 476.649C524.428 476.924 524.119 477.138 523.757 477.265C523.396 477.391 522.998 477.424 522.614 477.36C522.23 477.295 521.877 477.136 521.6 476.903C521.323 476.669 521.134 476.371 521.058 476.047C520.981 475.723 521.02 475.387 521.171 475.081C521.32 474.776 521.574 474.515 521.899 474.332C522.225 474.148 522.608 474.05 522.999 474.05C523.524 474.05 524.028 474.226 524.399 474.539C524.771 474.852 524.979 475.277 524.979 475.721Z" fill="#90FFFF"></path> <path fill-rule="evenodd" clip-rule="evenodd" d="M251.722 490.295C251.722 490.626 251.605 490.949 251.388 491.224C251.17 491.499 250.861 491.713 250.499 491.84C250.138 491.966 249.74 491.999 249.356 491.935C248.972 491.87 248.618 491.711 248.342 491.478C248.065 491.244 247.876 490.946 247.8 490.622C247.723 490.298 247.763 489.962 247.913 489.656C248.062 489.351 248.316 489.09 248.641 488.906C248.967 488.723 249.35 488.625 249.741 488.625C250.002 488.625 250.259 488.668 250.499 488.752C250.74 488.836 250.958 488.959 251.141 489.114C251.325 489.269 251.471 489.453 251.571 489.656C251.67 489.859 251.722 490.076 251.722 490.295Z" fill="#90FFFF"></path> <path fill-rule="evenodd" clip-rule="evenodd" d="M790.544 111.507C790.544 111.837 790.43 112.161 790.215 112.435C789.993 112.71 789.684 112.924 789.322 113.051C788.966 113.177 788.563 113.211 788.18 113.146C787.797 113.081 787.441 112.922 787.166 112.689C786.891 112.455 786.703 112.157 786.622 111.833C786.548 111.509 786.588 111.173 786.736 110.867C786.891 110.562 787.139 110.301 787.468 110.118C787.79 109.934 788.173 109.836 788.569 109.836C788.825 109.836 789.087 109.879 789.322 109.963C789.563 110.047 789.785 110.17 789.966 110.325C790.154 110.48 790.295 110.665 790.396 110.867C790.497 111.07 790.544 111.288 790.544 111.507Z" fill="#90FFFF"></path> <path fill-rule="evenodd" clip-rule="evenodd" d="M723.364 207.365C723.364 207.696 723.25 208.019 723.035 208.293C722.814 208.569 722.505 208.783 722.142 208.91C721.779 209.036 721.383 209.069 721 209.004C720.618 208.94 720.262 208.781 719.986 208.547C719.711 208.314 719.523 208.016 719.442 207.692C719.368 207.367 719.409 207.031 719.557 206.726C719.704 206.42 719.959 206.159 720.288 205.976C720.611 205.792 720.994 205.694 721.383 205.694C721.914 205.694 722.417 205.87 722.787 206.184C723.156 206.497 723.364 206.922 723.364 207.365Z" fill="#90FFFF"></path> <path fill-rule="evenodd" clip-rule="evenodd" d="M525.202 219.686C525.202 220.017 525.086 220.339 524.868 220.614C524.651 220.889 524.342 221.103 523.98 221.23C523.618 221.356 523.22 221.39 522.836 221.325C522.452 221.261 522.099 221.102 521.822 220.867C521.546 220.634 521.357 220.337 521.28 220.012C521.204 219.688 521.243 219.352 521.393 219.047C521.543 218.741 521.797 218.48 522.122 218.296C522.447 218.113 522.83 218.015 523.222 218.015C523.482 218.015 523.739 218.058 523.98 218.142C524.22 218.226 524.438 218.349 524.622 218.504C524.806 218.66 524.952 218.843 525.051 219.046C525.151 219.249 525.202 219.466 525.202 219.686Z" fill="#90FFFF"></path> <path fill-rule="evenodd" clip-rule="evenodd" d="M582.479 499.406C582.479 499.737 582.363 500.06 582.146 500.335C581.928 500.61 581.619 500.824 581.257 500.951C580.895 501.077 580.498 501.11 580.113 501.046C579.729 500.981 579.376 500.822 579.1 500.588C578.823 500.355 578.634 500.057 578.558 499.733C578.481 499.408 578.521 499.072 578.67 498.767C578.82 498.461 579.074 498.2 579.399 498.017C579.725 497.833 580.107 497.735 580.499 497.735C580.759 497.735 581.017 497.778 581.257 497.862C581.497 497.946 581.715 498.07 581.899 498.225C582.083 498.38 582.229 498.564 582.328 498.767C582.428 498.969 582.479 499.187 582.479 499.406Z" fill="#90FFFF"></path> <path fill-rule="evenodd" clip-rule="evenodd" d="M1078.92 491.402C1078.92 491.733 1078.8 492.056 1078.58 492.331C1078.37 492.606 1078.06 492.82 1077.69 492.947C1077.33 493.073 1076.94 493.106 1076.55 493.042C1076.16 492.978 1075.81 492.818 1075.54 492.584C1075.26 492.351 1075.07 492.053 1074.99 491.729C1074.92 491.404 1074.95 491.068 1075.11 490.763C1075.26 490.458 1075.51 490.197 1075.83 490.013C1076.16 489.829 1076.55 489.731 1076.94 489.731C1077.46 489.731 1077.96 489.907 1078.34 490.221C1078.71 490.534 1078.92 490.96 1078.92 491.402Z" fill="#90FFFF"></path> <path fill-rule="evenodd" clip-rule="evenodd" d="M1355.59 280.417C1355.59 280.748 1355.47 281.071 1355.25 281.346C1355.04 281.62 1354.73 281.835 1354.37 281.961C1354 282.088 1353.61 282.121 1353.22 282.057C1352.83 281.992 1352.49 281.833 1352.21 281.6C1351.93 281.365 1351.74 281.068 1351.67 280.744C1351.59 280.42 1351.63 280.084 1351.78 279.778C1351.93 279.473 1352.18 279.212 1352.51 279.028C1352.83 278.845 1353.22 278.746 1353.61 278.746C1354.13 278.746 1354.63 278.923 1355 279.236C1355.38 279.549 1355.59 279.974 1355.59 280.417Z" fill="#406FBB"></path> <path fill-rule="evenodd" clip-rule="evenodd" d="M1192.26 206.65C1192.26 206.98 1192.14 207.303 1191.92 207.578C1191.71 207.853 1191.39 208.067 1191.04 208.194C1190.67 208.32 1190.27 208.353 1189.89 208.288C1189.51 208.224 1189.16 208.065 1188.87 207.831C1188.6 207.598 1188.41 207.3 1188.34 206.976C1188.26 206.652 1188.3 206.315 1188.45 206.01C1188.6 205.705 1188.85 205.444 1189.18 205.26C1189.5 205.077 1189.88 204.979 1190.28 204.979C1190.8 204.979 1191.31 205.155 1191.68 205.468C1192.05 205.782 1192.26 206.207 1192.26 206.65Z" fill="#406FBB"></path> <path fill-rule="evenodd" clip-rule="evenodd" d="M325.463 37.21C325.463 37.4295 325.412 37.6468 325.313 37.8496C325.213 38.0523 325.067 38.2365 324.884 38.3917C324.7 38.5469 324.482 38.67 324.241 38.7539C324.001 38.8379 323.743 38.8811 323.484 38.8811C322.958 38.8811 322.455 38.705 322.083 38.3916C321.712 38.0782 321.504 37.6532 321.504 37.21C321.504 36.7669 321.712 36.3419 322.083 36.0285C322.455 35.7152 322.958 35.5391 323.484 35.5391C323.743 35.5391 324.001 35.5822 324.241 35.6662C324.482 35.7501 324.7 35.8732 324.884 36.0284C325.067 36.1836 325.213 36.3678 325.313 36.5705C325.412 36.7733 325.463 36.9906 325.463 37.21Z" fill="#406FBB"></path> <path fill-rule="evenodd" clip-rule="evenodd" d="M1052.7 327.223C1052.7 327.554 1052.59 327.876 1052.37 328.152C1052.15 328.426 1051.84 328.641 1051.48 328.767C1051.12 328.894 1050.72 328.927 1050.34 328.862C1049.95 328.798 1049.6 328.639 1049.32 328.405C1049.04 328.171 1048.85 327.874 1048.78 327.55C1048.71 327.225 1048.74 326.889 1048.89 326.584C1049.04 326.279 1049.3 326.017 1049.62 325.834C1049.95 325.65 1050.33 325.552 1050.72 325.552C1051.24 325.552 1051.75 325.728 1052.12 326.042C1052.49 326.355 1052.7 326.78 1052.7 327.223Z" fill="#406FBB"></path> </svg> 